<svg width="48" height="48" viewBox="0 0 48 48" fill="none" xmlns="http://www.w3.org/2000/svg">
<circle cx="24" cy="24.0002" r="24" transform="rotate(-180 24 24.0002)" fill="#282828"/>
<path d="M21.0041 34.2401C21.0033 34.068 21.0285 33.8973 21.0782 33.738C21.128 33.5786 21.2012 33.4337 21.2938 33.3115L28.5866 23.7767L21.2938 14.242C21.1057 13.9957 21 13.6616 21 13.3133C21 12.965 21.1057 12.631 21.2938 12.3847C21.4819 12.1384 21.7371 12.0001 22.0031 12.0001C22.2691 12.0001 22.5243 12.1384 22.7124 12.3847L30.7045 22.8481C30.7981 22.9697 30.8724 23.1143 30.9232 23.2737C30.9739 23.4331 31 23.6041 31 23.7767C31 23.9494 30.9739 24.1203 30.9232 24.2797C30.8724 24.4391 30.7981 24.5838 30.7045 24.7053L22.7124 35.1687C22.6195 35.2913 22.509 35.3886 22.3873 35.455C22.2656 35.5214 22.135 35.5556 22.0031 35.5556C21.8712 35.5556 21.7406 35.5214 21.6189 35.455C21.4972 35.3886 21.3867 35.2913 21.2938 35.1687C21.2012 35.0465 21.128 34.9016 21.0782 34.7422C21.0285 34.5829 21.0033 34.4122 21.0041 34.2401Z" fill="white"/>
</svg>
