<svg width="48" height="48" viewBox="0 0 48 48" fill="none" xmlns="http://www.w3.org/2000/svg">
<circle cx="24" cy="24" r="24" fill="#282828"/>
<path d="M26.9959 13.3155C26.9967 13.4876 26.9715 13.6583 26.9218 13.8176C26.872 13.977 26.7988 14.1219 26.7062 14.2441L19.4134 23.7789L26.7062 33.3136C26.8943 33.5599 27 33.894 27 34.2423C27 34.5906 26.8943 34.9246 26.7062 35.1709C26.5181 35.4172 26.2629 35.5555 25.9969 35.5555C25.7309 35.5555 25.4757 35.4172 25.2876 35.1709L17.2955 24.7075C17.2019 24.5859 17.1275 24.4413 17.0768 24.2819C17.0261 24.1225 17 23.9515 17 23.7789C17 23.6062 17.0261 23.4353 17.0768 23.2759C17.1275 23.1165 17.2019 22.9718 17.2955 22.8503L25.2876 12.3869C25.3805 12.2643 25.491 12.167 25.6127 12.1006C25.7344 12.0342 25.865 12 25.9969 12C26.1288 12 26.2594 12.0342 26.3811 12.1006C26.5028 12.167 26.6133 12.2643 26.7062 12.3869C26.7988 12.5091 26.872 12.654 26.9218 12.8134C26.9715 12.9727 26.9967 13.1434 26.9959 13.3155Z" fill="white"/>
</svg>
