<svg width="26" height="26" viewBox="0 0 26 26" fill="none" xmlns="http://www.w3.org/2000/svg">
<circle cx="13" cy="13" r="11.7545" stroke="#D72424" stroke-width="2.49093"/>
<path d="M16.12 12.2189H13.78V9.87894C13.78 9.44818 13.4307 9.09894 13 9.09894C12.5692 9.09894 12.22 9.44818 12.22 9.87894V12.2189H9.87998C9.44922 12.2189 9.09998 12.5682 9.09998 12.9989C9.09998 13.4297 9.44922 13.7789 9.87998 13.7789H12.22V16.1189C12.22 16.5497 12.5692 16.8989 13 16.8989C13.4307 16.8989 13.78 16.5497 13.78 16.1189V13.7789H16.12C16.5507 13.7789 16.9 13.4297 16.9 12.9989C16.9 12.5682 16.5507 12.2189 16.12 12.2189Z" fill="#D72424"/>
</svg>
