
<svg width="30" height="40" viewBox="0 0 42 58" fill="none" xmlns="http://www.w3.org/2000/svg">
<path fill-rule="evenodd" clip-rule="evenodd" d="M26.964 2.73992C25.116 2.15192 23.1 1.81592 21.042 1.81592C15.12 1.81592 9.78595 4.50392 6.21595 8.74592C3.40195 12.1059 1.67993 16.4739 1.67993 21.1779C1.67993 24.8319 2.39393 27.7719 3.61193 30.4179C5.15323 33.8216 7.48017 36.7344 10.0296 39.9256C10.8147 40.9085 11.621 41.9178 12.432 42.9759C13.524 44.4039 14.658 46.0419 15.75 47.7219C17.6106 50.592 18.3518 52.9117 18.8792 54.5623C19.4709 56.4142 19.7936 57.4239 21.126 57.4239C22.4566 57.4239 22.7801 56.4052 23.3703 54.5471C23.8979 52.8861 24.6386 50.5543 26.502 47.6799C28.3923 44.7217 30.3723 42.237 32.2281 39.9081C36.7222 34.2685 40.488 29.543 40.488 21.2199C40.488 17.9859 39.69 14.9619 38.304 12.2739L32.726 18.8932C34.4484 16.8451 36.3833 14.5476 38.304 12.2739C35.952 7.73793 31.878 4.29392 26.964 2.73992ZM27.0662 25.6097C27.9726 24.3715 28.518 22.8468 28.518 21.2199C28.518 17.1039 25.2 13.7859 21.084 13.7859C18.774 13.7859 16.758 14.8359 15.372 16.4319L15.2432 16.585C14.2306 17.8264 13.65 19.4441 13.65 21.1779C13.65 25.2939 16.968 28.6119 21.084 28.6119C23.352 28.6119 25.368 27.6039 26.754 25.9659L12.4416 42.9645L27.0662 25.6097Z" fill="black"/>
<mask id="mask0_360_10" style="mask-type:luminance" maskUnits="userSpaceOnUse" x="0" y="0" width="42" height="43">
<path d="M42 0.975952H0V42.976H42V0.975952Z" fill="white"/>
</mask>
<g mask="url(#mask0_360_10)">
<path d="M21.467 42.1933C32.3776 42.1933 41.2223 33.3485 41.2223 22.4379C41.2223 11.5274 32.3776 2.68262 21.467 2.68262C10.5564 2.68262 1.71167 11.5274 1.71167 22.4379C1.71167 33.3485 10.5564 42.1933 21.467 42.1933Z" fill="black"/>
<path d="M20.6437 41.37C31.5543 41.37 40.3991 32.5253 40.3991 21.6147C40.3991 10.7041 31.5543 1.85938 20.6437 1.85938C9.73319 1.85938 0.888428 10.7041 0.888428 21.6147C0.888428 32.5253 9.73319 41.37 20.6437 41.37Z" fill="black"/>
<path d="M20.6439 39.7237C30.6452 39.7237 38.7529 31.6161 38.7529 21.6147C38.7529 11.6134 30.6452 3.50574 20.6439 3.50574C10.6426 3.50574 2.53491 11.6134 2.53491 21.6147C2.53491 31.6161 10.6426 39.7237 20.6439 39.7237Z" fill="white"/>
<path d="M20.6436 33.1386C27.0081 33.1386 32.1675 27.9791 32.1675 21.6146C32.1675 15.2501 27.0081 10.0907 20.6436 10.0907C14.2791 10.0907 9.11963 15.2501 9.11963 21.6146C9.11963 27.9791 14.2791 33.1386 20.6436 33.1386Z" fill="#D72424"/>
<path d="M38.5591 4.13289L12.8599 45.9335L12.4602 45.0276L35.6208 1.16699L38.5591 4.13289Z" fill="black" fill-opacity="0.3"/>
<path d="M10.0583 43.3811L16.7767 -4.3107L21.3478 -4.31726L10.8883 44.1126L10.0583 43.3811Z" fill="black" fill-opacity="0.3"/>
<path d="M36.6462 3.69262L11.956 46.3699L11.5344 46.3682L33.2609 0.826904L36.6462 3.69262Z" fill="black"/>
<path d="M9.53735 44.3665L14.5075 -4.31726L18.2433 -4.72559L9.95261 44.7757L9.53735 44.3665Z" fill="black"/>
</g>
</svg>