<svg width="18" height="18" viewBox="0 0 15 15" fill="none" xmlns="http://www.w3.org/2000/svg">
<path d="M5.33333 13.4584C5.93164 13.4584 6.41667 12.9733 6.41667 12.375C6.41667 11.7767 5.93164 11.2917 5.33333 11.2917C4.73502 11.2917 4.25 11.7767 4.25 12.375C4.25 12.9733 4.73502 13.4584 5.33333 13.4584Z" stroke="white" stroke-width="1.5" stroke-linecap="round" stroke-linejoin="round"/>
<path d="M11.8333 13.4584C12.4316 13.4584 12.9167 12.9733 12.9167 12.375C12.9167 11.7767 12.4316 11.2917 11.8333 11.2917C11.235 11.2917 10.75 11.7767 10.75 12.375C10.75 12.9733 11.235 13.4584 11.8333 13.4584Z" stroke="white" stroke-width="1.5" stroke-linecap="round" stroke-linejoin="round"/>
<path d="M4.07127 4.25002H13.4584L12.5484 8.7946C12.4988 9.04398 12.3632 9.268 12.1651 9.42743C11.967 9.58686 11.7192 9.67156 11.465 9.66669H5.7396C5.4751 9.66893 5.21891 9.57432 5.01935 9.40071C4.81979 9.22709 4.69065 8.98646 4.65627 8.72419L3.83294 2.48419C3.79879 2.22377 3.67121 1.98463 3.47392 1.81126C3.27663 1.63788 3.02308 1.54208 2.76044 1.54169H1.54169" stroke="white" stroke-width="1.5" stroke-linecap="round" stroke-linejoin="round"/>
</svg>
