<svg width="216" height="100" viewBox="0 0 216 100" fill="none" xmlns="http://www.w3.org/2000/svg">
<path d="M52.4996 1.5177C52.5093 0.965498 52.0696 0.50993 51.5174 0.500157C50.9652 0.490383 50.5097 0.930105 50.4999 1.4823L52.4996 1.5177ZM156 77.5L155.929 76.5025L156 77.5ZM156 7.5L155.939 6.50183L156 7.5ZM3 99.5L11.3853 91.5615L0.317675 88.2689L3 99.5ZM5.046 96.1245C5.23186 95.6044 4.96093 95.0321 4.44086 94.8463C3.92079 94.6604 3.34852 94.9314 3.16266 95.4514L5.046 96.1245ZM6.4449 88.2245C6.18137 88.7099 6.36119 89.317 6.84655 89.5805C7.33191 89.844 7.939 89.6642 8.20253 89.1789L6.4449 88.2245ZM12.2344 82.6292C12.5464 82.1735 12.4299 81.5511 11.9742 81.2391C11.5184 80.9271 10.8961 81.0436 10.5841 81.4994L12.2344 82.6292ZM15.2925 75.1821C14.9462 75.6124 15.0144 76.2418 15.4447 76.5881C15.875 76.9343 16.5045 76.8661 16.8507 76.4359L15.2925 75.1821ZM21.8975 70.562C22.2699 70.1542 22.2413 69.5217 21.8335 69.1492C21.4258 68.7767 20.7932 68.8054 20.4208 69.2131L21.8975 70.562ZM25.8599 63.5752C25.4662 63.9625 25.461 64.5957 25.8483 64.9894C26.2356 65.3831 26.8688 65.3882 27.2625 65.0009L25.8599 63.5752ZM32.9256 59.6934C33.3373 59.3253 33.3726 58.6931 33.0045 58.2814C32.6364 57.8697 32.0042 57.8344 31.5925 58.2025L32.9256 59.6934ZM37.5446 53.1124C37.1172 53.4622 37.0543 54.0922 37.4042 54.5196C37.754 54.947 38.3841 55.0098 38.8114 54.66L37.5446 53.1124ZM44.9098 49.8744C45.3511 49.5424 45.4397 48.9154 45.1076 48.4741C44.7755 48.0328 44.1486 47.9443 43.7073 48.2764L44.9098 49.8744ZM50.0677 43.683C49.6138 43.9976 49.5008 44.6207 49.8154 45.0746C50.13 45.5285 50.753 45.6414 51.207 45.3268L50.0677 43.683ZM57.6646 41.03C58.1301 40.7328 58.2664 40.1145 57.9692 39.649C57.6719 39.1835 57.0536 39.0472 56.5881 39.3444L57.6646 41.03ZM63.2605 35.2548C62.7844 35.5347 62.6254 36.1476 62.9053 36.6237C63.1852 37.0998 63.798 37.2588 64.2741 36.9789L63.2605 35.2548ZM71.0332 33.1692C71.5191 32.9068 71.7004 32.3001 71.438 31.8141C71.1756 31.3282 70.5689 31.1469 70.0829 31.4093L71.0332 33.1692ZM77.0431 27.8123C76.548 28.057 76.3449 28.6567 76.5896 29.1518C76.8342 29.647 77.4339 29.8501 77.9291 29.6054L77.0431 27.8123ZM84.9509 26.2926C85.4546 26.066 85.6792 25.474 85.4526 24.9704C85.2261 24.4667 84.6341 24.2421 84.1304 24.4686L84.9509 26.2926ZM91.335 21.3836C90.8234 21.5918 90.5774 22.1752 90.7855 22.6868C90.9937 23.1983 91.5771 23.4443 92.0887 23.2362L91.335 21.3836ZM99.3237 20.4455C99.8426 20.2562 100.11 19.6821 99.9204 19.1633C99.7311 18.6445 99.1571 18.3773 98.6382 18.5666L99.3237 20.4455ZM106.042 16.0192C105.516 16.1892 105.228 16.753 105.398 17.2785C105.568 17.8039 106.132 18.0921 106.657 17.9221L106.042 16.0192ZM114.08 15.6729C114.612 15.5227 114.921 14.9701 114.771 14.4386C114.62 13.9071 114.068 13.5981 113.536 13.7483L114.08 15.6729ZM121.112 11.7609C120.576 11.8908 120.246 12.4313 120.376 12.9681C120.506 13.5049 121.046 13.8347 121.583 13.7047L121.112 11.7609ZM129.155 12.0243C129.696 11.9151 130.047 11.3876 129.938 10.8463C129.828 10.3049 129.301 9.95457 128.759 10.0638L129.155 12.0243ZM136.467 8.66381C135.922 8.75188 135.551 9.26526 135.64 9.81048C135.728 10.3557 136.241 10.7263 136.786 10.6382L136.467 8.66381ZM144.465 9.55252C145.014 9.48604 145.404 8.98768 145.338 8.43942C145.271 7.89115 144.773 7.50058 144.225 7.56707L144.465 9.55252ZM152.02 6.77916C151.469 6.8237 151.059 7.30606 151.104 7.85654C151.148 8.40703 151.63 8.81718 152.181 8.77265L152.02 6.77916ZM160.219 8.32908C160.771 8.31786 161.21 7.86115 161.198 7.30898C161.187 6.75681 160.73 6.31828 160.178 6.32949L160.219 8.32908ZM168.551 6.51763C168 6.48056 167.523 6.89722 167.486 7.44826C167.449 7.9993 167.865 8.47606 168.416 8.51312L168.551 6.51763ZM176.618 9.47402C177.163 9.56669 177.679 9.20045 177.772 8.656C177.864 8.11155 177.498 7.59505 176.954 7.50238L176.618 9.47402ZM185.149 9.38414C184.619 9.22837 184.063 9.53163 183.907 10.0615C183.751 10.5914 184.055 11.1472 184.585 11.3029L185.149 9.38414ZM192.276 14.1442C192.779 14.3724 193.372 14.1498 193.6 13.6469C193.829 13.144 193.606 12.5513 193.103 12.323L192.276 14.1442ZM200.52 16.4536C200.063 16.1436 199.442 16.263 199.132 16.7201C198.822 17.1772 198.941 17.799 199.398 18.1089L200.52 16.4536ZM205.606 23.307C205.988 23.7057 206.621 23.7191 207.02 23.3369C207.418 22.9547 207.432 22.3217 207.05 21.923L205.606 23.307ZM212.135 28.8034C211.871 28.3185 211.264 28.1396 210.779 28.4038C210.294 28.6681 210.115 29.2754 210.379 29.7604L212.135 28.8034ZM213.041 37.2754C213.136 37.8195 213.654 38.1837 214.198 38.089C214.742 37.9943 215.106 37.4764 215.012 36.9323L213.041 37.2754ZM214.952 45.5702C215.055 45.0276 214.698 44.5045 214.155 44.4019C213.613 44.2992 213.089 44.656 212.987 45.1986L214.952 45.5702ZM210.208 52.6429C209.935 53.1227 210.102 53.7334 210.582 54.0067C211.062 54.2801 211.673 54.1127 211.946 53.6328L210.208 52.6429ZM206.726 60.4208C207.115 60.0288 207.112 59.3957 206.72 59.0066C206.328 58.6175 205.695 58.6198 205.306 59.0118L206.726 60.4208ZM199.029 64.1416C198.57 64.4494 198.448 65.0706 198.756 65.5292C199.064 65.9878 199.685 66.11 200.144 65.8023L199.029 64.1416ZM192.763 69.9609C193.262 69.7248 193.475 69.1286 193.239 68.6294C193.003 68.1301 192.407 67.9168 191.908 68.153L192.763 69.9609ZM184.29 71.2117C183.767 71.3889 183.487 71.9566 183.664 72.4797C183.841 73.0028 184.409 73.2832 184.932 73.106L184.29 71.2117ZM176.828 75.4293C177.365 75.3007 177.696 74.761 177.568 74.2239C177.439 73.6868 176.899 73.3557 176.362 73.4843L176.828 75.4293ZM168.302 75.0899C167.757 75.1783 167.387 75.6918 167.475 76.237C167.564 76.7822 168.077 77.1525 168.622 77.0642L168.302 75.0899ZM160.314 78.1391C160.863 78.0848 161.265 77.5953 161.211 77.0457C161.156 76.4961 160.667 76.0945 160.117 76.1488L160.314 78.1391ZM152.12 76.6787C151.568 76.6908 151.13 77.1483 151.142 77.7004C151.154 78.2526 151.612 78.6903 152.164 78.6782L152.12 76.6787ZM144.373 78.476C144.923 78.5165 145.403 78.1029 145.443 77.5521C145.484 77.0013 145.07 76.5219 144.519 76.4814L144.373 78.476ZM136.961 75.5694C136.416 75.4781 135.901 75.8457 135.81 76.3904C135.718 76.9351 136.086 77.4506 136.631 77.5419L136.961 75.5694ZM129.014 75.9157C129.549 76.0544 130.095 75.7335 130.233 75.1989C130.372 74.6643 130.051 74.1185 129.516 73.9798L129.014 75.9157ZM122.224 71.7587C121.702 71.5764 121.132 71.8512 120.95 72.3725C120.767 72.8938 121.042 73.4642 121.563 73.6466L122.224 71.7587ZM114.326 70.7944C114.832 71.0162 115.421 70.7861 115.643 70.2803C115.865 69.7746 115.635 69.1847 115.129 68.9628L114.326 70.7944ZM108.253 65.6444C107.764 65.387 107.159 65.5744 106.902 66.063C106.644 66.5516 106.832 67.1564 107.32 67.4138L108.253 65.6444ZM100.572 63.5627C101.043 63.8521 101.659 63.7054 101.948 63.235C102.237 62.7645 102.091 62.1486 101.62 61.8592L100.572 63.5627ZM95.2369 57.6497C94.7854 57.3316 94.1615 57.4397 93.8434 57.8911C93.5253 58.3426 93.6333 58.9664 94.0848 59.2846L95.2369 57.6497ZM87.8747 54.6261C88.3066 54.9703 88.9358 54.8992 89.28 54.4673C89.6242 54.0353 89.5531 53.4062 89.1211 53.062L87.8747 54.6261ZM83.2761 48.1256C82.8643 47.7575 82.2322 47.7929 81.8641 48.2046C81.496 48.6164 81.5314 49.2486 81.9431 49.6166L83.2761 48.1256ZM76.2999 44.2822C76.6906 44.6726 77.3237 44.6723 77.7141 44.2816C78.1045 43.891 78.1042 43.2578 77.7135 42.8674L76.2999 44.2822ZM72.4602 37.3181C72.0919 36.9065 71.4597 36.8714 71.0481 37.2397C70.6366 37.608 70.6015 38.2402 70.9698 38.6518L72.4602 37.3181ZM65.959 32.7157C66.3027 33.1481 66.9317 33.2201 67.3641 32.8765C67.7965 32.5329 67.8685 31.9038 67.5249 31.4714L65.959 32.7157ZM62.9589 25.3368C62.644 24.8831 62.0209 24.7706 61.5672 25.0855C61.1135 25.4004 61.001 26.0235 61.3159 26.4772L62.9589 25.3368ZM57.1216 19.923C57.4002 20.3999 58.0126 20.5607 58.4895 20.2821C58.9664 20.0035 59.1271 19.3911 58.8485 18.9142L57.1216 19.923ZM55.3538 12.1722C55.1287 11.6679 54.5373 11.4415 54.033 11.6666C53.5287 11.8917 53.3023 12.4831 53.5274 12.9874L55.3538 12.1722ZM50.9584 5.52518C51.0764 6.0647 51.6094 6.40639 52.149 6.28836C52.6885 6.17033 53.0302 5.63728 52.9122 5.09775L50.9584 5.52518ZM8.20253 89.1789C9.35154 87.0627 10.6979 84.8734 12.2344 82.6292L10.5841 81.4994C9.01322 83.7938 7.63014 86.0416 6.4449 88.2245L8.20253 89.1789ZM16.8507 76.4359C18.4089 74.4994 20.0927 72.5378 21.8975 70.562L20.4208 69.2131C18.5894 71.2182 16.8782 73.2113 15.2925 75.1821L16.8507 76.4359ZM27.2625 65.0009C29.0601 63.2324 30.9489 61.4608 32.9256 59.6934L31.5925 58.2025C29.5927 59.9905 27.6807 61.7839 25.8599 63.5752L27.2625 65.0009ZM38.8114 54.66C40.7742 53.0532 42.8079 51.4561 44.9098 49.8744L43.7073 48.2764C41.5838 49.8743 39.5287 51.4882 37.5446 53.1124L38.8114 54.66ZM51.207 45.3268C53.3025 43.8745 55.4558 42.4407 57.6646 41.03L56.5881 39.3444C54.3581 40.7686 52.1839 42.2164 50.0677 43.683L51.207 45.3268ZM64.2741 36.9789C66.4794 35.6824 68.7331 34.4111 71.0332 33.1692L70.0829 31.4093C67.7614 32.6629 65.4866 33.946 63.2605 35.2548L64.2741 36.9789ZM77.9291 29.6054C80.2291 28.469 82.5702 27.3635 84.9509 26.2926L84.1304 24.4686C81.7275 25.5496 79.3645 26.6654 77.0431 27.8123L77.9291 29.6054ZM92.0887 23.2362C94.4655 22.2692 96.8777 21.3378 99.3237 20.4455L98.6382 18.5666C96.1691 19.4674 93.7341 20.4075 91.335 21.3836L92.0887 23.2362ZM106.657 17.9221C109.102 17.1314 111.577 16.3806 114.08 15.6729L113.536 13.7483C111.008 14.4629 108.51 15.2209 106.042 16.0192L106.657 17.9221ZM121.583 13.7047C124.081 13.0998 126.606 12.5388 129.155 12.0243L128.759 10.0638C126.185 10.5834 123.635 11.15 121.112 11.7609L121.583 13.7047ZM136.786 10.6382C139.324 10.2283 141.884 9.86555 144.465 9.55252L144.225 7.56707C141.617 7.8833 139.03 8.24977 136.467 8.66381L136.786 10.6382ZM152.181 8.77265C153.469 8.66842 154.762 8.57683 156.06 8.49817L155.939 6.50183C154.628 6.58131 153.321 6.67386 152.02 6.77916L152.181 8.77265ZM156.06 8.49817C157.47 8.41275 158.856 8.35677 160.219 8.32908L160.178 6.32949C158.788 6.35774 157.375 6.41482 155.939 6.50183L156.06 8.49817ZM168.416 8.51312C171.275 8.70537 174.01 9.03008 176.618 9.47402L176.954 7.50238C174.277 7.0467 171.474 6.71427 168.551 6.51763L168.416 8.51312ZM184.585 11.3029C187.334 12.1113 189.9 13.0656 192.276 14.1442L193.103 12.323C190.638 11.2041 187.984 10.2176 185.149 9.38414L184.585 11.3029ZM199.398 18.1089C201.758 19.709 203.83 21.4545 205.606 23.307L207.05 21.923C205.171 19.9626 202.989 18.1274 200.52 16.4536L199.398 18.1089ZM210.379 29.7604C211.704 32.1921 212.596 34.7173 213.041 37.2754L215.012 36.9323C214.527 34.1473 213.559 31.4157 212.135 28.8034L210.379 29.7604ZM212.987 45.1986C212.512 47.7098 211.594 50.2098 210.208 52.6429L211.946 53.6328C213.437 51.016 214.434 48.308 214.952 45.5702L212.987 45.1986ZM205.306 59.0118C203.527 60.8047 201.438 62.5247 199.029 64.1416L200.144 65.8023C202.654 64.1178 204.846 62.3149 206.726 60.4208L205.306 59.0118ZM191.908 68.153C189.572 69.2575 187.035 70.2819 184.29 71.2117L184.932 73.106C187.745 72.1531 190.354 71.1004 192.763 69.9609L191.908 68.153ZM176.362 73.4843C173.817 74.0937 171.131 74.6315 168.302 75.0899L168.622 77.0642C171.498 76.5982 174.232 76.0509 176.828 75.4293L176.362 73.4843ZM160.117 76.1488C158.75 76.2838 157.354 76.4019 155.929 76.5025L156.07 78.4975C157.513 78.3957 158.927 78.276 160.314 78.1391L160.117 76.1488ZM155.929 76.5025C154.654 76.5925 153.384 76.6509 152.12 76.6787L152.164 78.6782C153.46 78.6497 154.762 78.5899 156.07 78.4975L155.929 76.5025ZM144.519 76.4814C141.97 76.2937 139.45 75.9863 136.961 75.5694L136.631 77.5419C139.179 77.9687 141.76 78.2836 144.373 78.476L144.519 76.4814ZM129.516 73.9798C127.048 73.3394 124.616 72.5955 122.224 71.7587L121.563 73.6466C124.006 74.5008 126.491 75.2609 129.014 75.9157L129.516 73.9798ZM115.129 68.9628C112.791 67.9373 110.498 66.8275 108.253 65.6444L107.32 67.4138C109.606 68.6182 111.942 69.7489 114.326 70.7944L115.129 68.9628ZM101.62 61.8592C99.4371 60.5164 97.3081 59.1093 95.2369 57.6497L94.0848 59.2846C96.1887 60.7672 98.3525 62.1973 100.572 63.5627L101.62 61.8592ZM89.1211 53.062C87.105 51.4554 85.1552 49.8055 83.2761 48.1256L81.9431 49.6166C83.8496 51.3211 85.8282 52.9953 87.8747 54.6261L89.1211 53.062ZM77.7135 42.8674C75.8756 41.031 74.1228 39.1759 72.4602 37.3181L70.9698 38.6518C72.657 40.5372 74.4354 42.4192 76.2999 44.2822L77.7135 42.8674ZM67.5249 31.4714C65.8797 29.4012 64.3554 27.3489 62.9589 25.3368L61.3159 26.4772C62.7377 28.5258 64.2879 30.6128 65.959 32.7157L67.5249 31.4714ZM58.8485 18.9142C57.4665 16.5484 56.2975 14.2868 55.3538 12.1722L53.5274 12.9874C54.5047 15.1769 55.708 17.5033 57.1216 19.923L58.8485 18.9142ZM52.9122 5.09775C52.6163 3.74549 52.4813 2.54714 52.4996 1.5177L50.4999 1.4823C50.4782 2.70556 50.6386 4.06356 50.9584 5.52518L52.9122 5.09775Z" fill="black"/>
</svg>
