<svg width="55" height="43" viewBox="0 0 55 43" fill="none" xmlns="http://www.w3.org/2000/svg">
<g clip-path="url(#clip0_128_662)">
<path fill-rule="evenodd" clip-rule="evenodd" d="M55.0001 17.12C55.0001 26.5752 47.385 34.2401 37.9914 34.2401C28.5978 34.2401 20.9828 26.5752 20.9828 17.12C20.9828 7.6649 28.5978 0 37.9914 0C47.385 0 55.0001 7.6649 55.0001 17.12Z" fill="#F79F1A"/>
<path fill-rule="evenodd" clip-rule="evenodd" d="M34.0173 17.12C34.0173 26.5752 26.4022 34.2401 17.0086 34.2401C7.61502 34.2401 0 26.5752 0 17.12C0 7.6649 7.61502 0 17.0086 0C26.4022 0 34.0173 7.6649 34.0173 17.12Z" fill="#EA001B"/>
<path fill-rule="evenodd" clip-rule="evenodd" d="M27.5 3.64301C23.5314 6.77713 20.984 11.6474 20.984 17.1184C20.984 22.5895 23.5314 27.4634 27.5 30.5976C31.4685 27.4634 34.016 22.5895 34.016 17.1184C34.016 11.6474 31.4685 6.77713 27.5 3.64301Z" fill="#FF5F01"/>
<path d="M54.9682 26.2039V25.5929H54.8094L54.6267 26.0131L54.444 25.5929H54.2852V26.2039H54.3973V25.743L54.5686 26.1403H54.6848L54.8561 25.742V26.2039H54.9682ZM53.9624 26.2039V25.6972H54.1659V25.5939H53.6479V25.6972H53.8514V26.2039H53.9624Z" fill="#F79F1A"/>
<path d="M3.78365 42.7092H2.81848V38.1842H3.76472V38.7355C3.76472 38.7355 4.59583 38.0617 5.08946 38.0701C6.04925 38.0865 6.62236 38.9066 6.62236 38.9066C6.62236 38.9066 7.08727 38.0701 8.13635 38.0701C9.6877 38.0701 9.91528 39.496 9.91528 39.496V42.6902H8.98796V39.8763C8.98796 39.8763 8.99129 39.0207 7.98495 39.0207C6.94429 39.0207 6.84946 39.8763 6.84946 39.8763V42.6902H5.8843V39.8573C5.8843 39.8573 5.79158 38.9637 4.91913 38.9637C3.78604 38.9637 3.76472 39.8763 3.76472 39.8763L3.78365 42.7092Z" fill="black"/>
<path d="M33.1353 38.0695C32.6417 38.0611 31.8106 38.7349 31.8106 38.7349V38.1847H30.8634V42.7087H31.8291L31.8106 39.8761C31.8106 39.8761 31.832 38.9654 32.9651 38.9654C33.1755 38.9654 33.339 39.0166 33.4683 39.0955V39.0918L33.7828 38.2107C33.593 38.1305 33.3772 38.0736 33.1353 38.0695Z" fill="black"/>
<path d="M46.7314 38.0695C46.2377 38.0611 45.4067 38.7349 45.4067 38.7349V38.1847H44.4595V42.7087H45.4252L45.4067 39.8761C45.4067 39.8761 45.4281 38.9654 46.5612 38.9654C46.7716 38.9654 46.935 39.0166 47.0644 39.0955V39.0918L47.3789 38.2107C47.1891 38.1305 46.9733 38.0736 46.7314 38.0695Z" fill="black"/>
<path d="M13.0361 38.0509C11.5916 38.0509 10.8272 39.3552 10.8234 40.4449C10.8194 41.5618 11.6936 42.85 13.0768 42.85C13.8837 42.85 14.5466 42.2515 14.5466 42.2515L14.5449 42.7125H15.4949V38.1829H14.5415V38.7535C14.5415 38.7535 13.919 38.0509 13.0361 38.0509ZM13.2211 38.9728C13.9971 38.9728 14.6271 39.651 14.6271 40.4858C14.6271 41.3206 13.9971 41.995 13.2211 41.995C12.445 41.995 11.8187 41.3206 11.8187 40.4858C11.8187 39.651 12.445 38.9728 13.2211 38.9728Z" fill="black"/>
<path d="M40.742 38.0509C39.2976 38.0509 38.5332 39.3552 38.5293 40.4449C38.5253 41.5618 39.3995 42.85 40.7827 42.85C41.5897 42.85 42.2526 42.2515 42.2526 42.2515L42.2508 42.7125H43.2008V38.1829H42.2475V38.7535C42.2475 38.7535 41.6249 38.0509 40.742 38.0509ZM40.927 38.9728C41.7031 38.9728 42.3331 39.651 42.3331 40.4858C42.3331 41.3206 41.7031 41.995 40.927 41.995C40.151 41.995 39.5247 41.3206 39.5247 40.4858C39.5247 39.651 40.151 38.9728 40.927 38.9728Z" fill="black"/>
<path d="M49.8637 38.0509C48.4193 38.0509 47.6549 39.3552 47.651 40.4449C47.647 41.5618 48.5212 42.85 49.9044 42.85C50.7114 42.85 51.3743 42.2515 51.3743 42.2515L51.3725 42.7125H52.3225V36.3949H51.3692V38.7535C51.3692 38.7535 50.7466 38.0509 49.8637 38.0509ZM50.0487 38.9728C50.8248 38.9728 51.4548 39.651 51.4548 40.4858C51.4548 41.3206 50.8248 41.995 50.0487 41.995C49.2727 41.995 48.6464 41.3206 48.6464 40.4858C48.6464 39.651 49.2727 38.9728 50.0487 38.9728Z" fill="black"/>
<path d="M18.3936 42.8613C17.4095 42.8613 16.5011 42.2529 16.5011 42.2529L16.9174 41.6065C16.9174 41.6065 17.777 42.0057 18.3936 42.0057C18.7942 42.0057 19.4642 41.8758 19.4723 41.4734C19.4808 41.0481 18.3463 40.922 18.3463 40.922C18.3463 40.922 16.6525 40.8988 16.6525 39.4961C16.6525 38.6139 17.4984 38.0511 18.5828 38.0511C19.2094 38.0511 20.3807 38.6025 20.3807 38.6025L19.9076 39.344C19.9076 39.344 19.0032 38.981 18.5261 38.9637C18.1231 38.9491 17.6366 39.1429 17.6366 39.4961C17.6366 40.4555 20.4564 39.4213 20.4564 41.3593C20.4564 42.6307 19.308 42.8613 18.3936 42.8613Z" fill="black"/>
<path d="M22.0238 36.8725V38.1884H21.1838V39.1401H22.0238V41.4151C22.0238 41.4151 21.9494 42.9541 23.5963 42.9541C24.0517 42.9541 24.9432 42.6158 24.9432 42.6158L24.5621 41.627C24.5621 41.627 24.2075 41.9308 23.8073 41.9207C23.0461 41.9014 23.0672 41.4114 23.0672 41.4114V39.1401H24.6361V38.1884H23.0672V36.8725H22.0238Z" fill="black"/>
<path d="M27.7405 38.1067C26.1917 38.1067 25.4179 39.3883 25.4242 40.5007C25.4308 41.6446 26.1289 42.9318 27.833 42.9318C28.5624 42.9318 29.5869 42.2887 29.5869 42.2887L29.1466 41.5192C29.1466 41.5192 28.4475 42.0173 27.833 42.0173C26.6028 42.0173 26.5232 40.8092 26.5232 40.8092H29.8163C29.8163 40.8092 30.062 38.1067 27.7405 38.1067ZM27.5999 38.9951C27.6364 38.9931 27.6756 38.9951 27.7146 38.9951C28.8736 38.9951 28.8654 40.0955 28.8654 40.0955H26.5232C26.5232 40.0955 26.4678 39.0598 27.5999 38.9951Z" fill="black"/>
<path d="M37.5361 41.5076L37.9777 42.3949C37.9777 42.3949 37.2778 42.852 36.4923 42.852C34.8661 42.852 33.9631 41.6224 33.9631 40.4589C33.9631 38.6304 35.4001 38.0928 36.3719 38.0928C37.2539 38.0928 38.0178 38.6036 38.0178 38.6036L37.5227 39.491C37.5227 39.491 37.2225 39.0204 36.3451 39.0204C35.4691 39.0204 35.0069 39.7792 35.0069 40.4993C35.0069 41.3062 35.5449 41.9915 36.3585 41.9915C36.9967 41.9915 37.5361 41.5076 37.5361 41.5076Z" fill="black"/>
<path d="M54.3145 42.0883C54.1808 42.0915 54.0706 42.1361 53.984 42.2219C53.8975 42.3077 53.8526 42.4152 53.8496 42.5441C53.8526 42.6721 53.8975 42.7793 53.984 42.8655C54.0706 42.9518 54.1808 42.9966 54.3145 43C54.4452 42.9966 54.5539 42.9518 54.6408 42.8655C54.7276 42.7793 54.7727 42.6721 54.776 42.5441C54.7728 42.4152 54.7279 42.3077 54.6412 42.2219C54.5545 42.1361 54.4456 42.0915 54.3145 42.0883ZM54.3145 42.8994C54.2126 42.8969 54.1286 42.8623 54.0625 42.7955C53.9963 42.7288 53.9621 42.645 53.9597 42.5441C53.9621 42.4429 53.9963 42.3591 54.0625 42.2929C54.1286 42.2266 54.2126 42.1923 54.3145 42.1899C54.4142 42.1923 54.497 42.2266 54.5627 42.2929C54.6283 42.3591 54.6624 42.4429 54.6648 42.5441C54.6624 42.645 54.6283 42.7288 54.5627 42.7955C54.497 42.8623 54.4142 42.8969 54.3145 42.8994ZM54.3412 42.3307H54.1466V42.7542H54.2366V42.5955H54.2778L54.4057 42.7542H54.5136L54.3757 42.5944C54.4187 42.589 54.4519 42.575 54.4751 42.5524C54.4983 42.5298 54.51 42.501 54.5102 42.4659C54.5099 42.4241 54.4952 42.3912 54.4662 42.3673C54.4371 42.3434 54.3954 42.3312 54.3412 42.3307ZM54.3401 42.4101C54.3642 42.4101 54.3832 42.4148 54.3969 42.4242C54.4107 42.4335 54.4177 42.4475 54.4179 42.4659C54.4177 42.4849 54.4107 42.4992 54.3969 42.5087C54.3832 42.5182 54.3642 42.5229 54.3401 42.5229H54.2366V42.4101L54.3401 42.4101Z" fill="black"/>
</g>
<defs>
<clipPath id="clip0_128_662">
<rect width="55" height="43" fill="white"/>
</clipPath>
</defs>
</svg>
