<svg width="8" height="12" viewBox="0 0 8 12" fill="none" xmlns="http://www.w3.org/2000/svg">
<path d="M4.13 11.14C3.374 11.14 2.744 11.028 2.24 10.804C1.736 10.5707 1.358 10.244 1.106 9.824C0.854 9.39467 0.728 8.886 0.728 8.298C0.728 8.16733 0.732667 8.04133 0.742 7.92C0.760667 7.78933 0.788667 7.66333 0.826 7.542H0.14V6.506H1.358C1.442 6.40333 1.53533 6.31 1.638 6.226C1.74067 6.13267 1.848 6.044 1.96 5.96C2.08133 5.876 2.20733 5.79667 2.338 5.722C2.46867 5.638 2.604 5.56333 2.744 5.498H0.14V4.462H4.816C4.93733 4.35 5.026 4.224 5.082 4.084C5.14733 3.93467 5.18 3.76667 5.18 3.58C5.18 3.37467 5.12867 3.202 5.026 3.062C4.93267 2.922 4.79267 2.81467 4.606 2.74C4.41933 2.66533 4.186 2.628 3.906 2.628C3.654 2.628 3.402 2.65133 3.15 2.698C2.90733 2.74467 2.65067 2.81 2.38 2.894C2.10933 2.978 1.82 3.08533 1.512 3.216L0.882 1.564C1.36733 1.34933 1.87133 1.18133 2.394 1.06C2.926 0.929333 3.486 0.863999 4.074 0.863999C4.72733 0.863999 5.28733 0.971333 5.754 1.186C6.23 1.39133 6.59867 1.69933 6.86 2.11C7.12133 2.52067 7.252 3.02467 7.252 3.622C7.252 3.77133 7.24267 3.916 7.224 4.056C7.20533 4.196 7.17733 4.33133 7.14 4.462H7.854V5.498H6.552C6.44933 5.61 6.33267 5.71733 6.202 5.82C6.08067 5.91333 5.95 6.002 5.81 6.086C5.67933 6.16067 5.53933 6.23533 5.39 6.31C5.25 6.37533 5.10533 6.44067 4.956 6.506H7.854V7.542H3.066C2.97267 7.64467 2.90267 7.76133 2.856 7.892C2.81867 8.01333 2.8 8.14867 2.8 8.298C2.8 8.522 2.85133 8.718 2.954 8.886C3.066 9.04467 3.22933 9.17067 3.444 9.264C3.668 9.348 3.93867 9.39 4.256 9.39C4.76 9.39 5.25467 9.334 5.74 9.222C6.22533 9.10067 6.71067 8.942 7.196 8.746V10.51C6.79467 10.706 6.33267 10.86 5.81 10.972C5.28733 11.084 4.72733 11.14 4.13 11.14Z" fill="white"/>
</svg>
