<svg width="90" height="30" viewBox="0 0 90 30" fill="none" xmlns="http://www.w3.org/2000/svg">
<path fill-rule="evenodd" clip-rule="evenodd" d="M36.5061 0.509281L31.9371 28.5891H39.2471L43.8168 0.509281H36.5061ZM25.7865 0.509281L18.8168 19.8223L17.9924 15.6635L17.993 15.6649L17.8113 14.7328C16.9678 12.9149 15.0142 9.45985 11.3253 6.51125C10.2347 5.63969 9.13528 4.89587 8.07251 4.26051L14.4069 28.5891H22.0234L33.6545 0.509281H25.7865ZM54.3167 8.30479C54.3167 5.13012 61.4362 5.53805 64.5645 7.26188L65.6076 1.2311C65.6076 1.2311 62.3881 0.00671387 59.0324 0.00671387C55.4044 0.00671387 46.7895 1.59327 46.7895 9.30233C46.7895 16.5575 56.9008 16.6476 56.9008 20.4567C56.9008 24.2658 47.832 23.585 44.8392 21.1822L43.7515 27.4858C43.7515 27.4858 47.0156 29.0724 52.0041 29.0724C56.9919 29.0724 64.5189 26.4883 64.5189 19.4592C64.5189 12.1586 54.3167 11.4787 54.3167 8.30479ZM84.1474 0.509281H78.2699C75.5559 0.509281 74.895 2.60191 74.895 2.60191L63.9932 28.5891H71.6127L73.1369 24.4184H82.4304L83.2877 28.5891H90L84.1474 0.509281ZM75.2436 18.6562L79.0849 8.14804L81.2459 18.6562H75.2436Z" fill="#005BAC"/>
<path fill-rule="evenodd" clip-rule="evenodd" d="M15.6331 3.15296C15.6331 3.15296 15.3305 0.618713 12.1001 0.618713H0.363911L0.22644 1.09499C0.22644 1.09499 5.86779 2.24499 11.28 6.5535C16.452 10.6714 18.1393 15.8045 18.1393 15.8045L15.6331 3.15296Z" fill="#F6AC1D"/>
</svg>
