<svg width="40" height="40" viewBox="0 0 40 40" fill="none" xmlns="http://www.w3.org/2000/svg">
<g clip-path="url(#clip0_376_15)">
<path d="M20 0C8.95312 0 0 8.95312 0 20C0 31.0469 8.95312 40 20 40C31.0469 40 40 31.0469 40 20C40 8.95312 31.0469 0 20 0ZM20 10C23.107 10 25.625 12.5188 25.625 15.625C25.625 18.7313 23.1094 21.25 20 21.25C16.8937 21.25 14.375 18.7313 14.375 15.625C14.375 12.5188 16.8906 10 20 10ZM20 35C15.8648 35 12.1172 33.318 9.39844 30.6023C10.6641 27.3359 13.7891 25 17.5 25H22.5C26.2141 25 29.3391 27.3344 30.6016 30.6023C27.8828 33.3203 24.1328 35 20 35Z" fill="#282828"/>
<g clip-path="url(#clip1_376_15)">
<circle cx="31.5" cy="33.5" r="7.5" fill="white"/>
<path d="M31.5 27C35.0899 27 38 29.9107 38 33.5C38 37.0893 35.0899 40 31.5 40C27.9101 40 25 37.0893 25 33.5C25 29.9107 27.9101 27 31.5 27ZM31.5 35.775C31.141 35.775 30.85 36.066 30.85 36.425C30.85 36.784 31.141 37.075 31.5 37.075C31.859 37.075 32.15 36.784 32.15 36.425C32.15 36.066 31.859 35.775 31.5 35.775ZM31.5 30.0875C30.5128 30.0875 29.7125 30.8878 29.7125 31.875C29.7125 32.1442 29.9308 32.3625 30.2 32.3625C30.4468 32.3625 30.6508 32.1791 30.6831 31.9412L30.6875 31.875C30.6875 31.4263 31.0512 31.0625 31.5 31.0625C31.9488 31.0625 32.3125 31.4263 32.3125 31.875C32.3125 32.2252 32.2247 32.3984 31.8933 32.7409L31.8053 32.8303C31.2345 33.4011 31.0125 33.7711 31.0125 34.475C31.0125 34.7442 31.2308 34.9625 31.5 34.9625C31.7692 34.9625 31.9875 34.7442 31.9875 34.475C31.9875 34.1248 32.0752 33.9516 32.4067 33.6091L32.4947 33.5197C33.0655 32.9489 33.2875 32.5789 33.2875 31.875C33.2875 30.8878 32.4872 30.0875 31.5 30.0875Z" fill="#D72424"/>
</g>
</g>
<defs>
<clipPath id="clip0_376_15">
<rect width="40" height="40" fill="white"/>
</clipPath>
<clipPath id="clip1_376_15">
<rect width="15" height="15" fill="white" transform="translate(24 26)"/>
</clipPath>
</defs>
</svg>
