<svg width="40" height="40" viewBox="0 0 40 40" fill="none" xmlns="http://www.w3.org/2000/svg">
<path d="M20 0C8.95312 0 0 8.95312 0 20C0 31.0469 8.95312 40 20 40C31.0469 40 40 31.0469 40 20C40 8.95312 31.0469 0 20 0ZM20 10C23.107 10 25.625 12.5188 25.625 15.625C25.625 18.7313 23.1094 21.25 20 21.25C16.8937 21.25 14.375 18.7313 14.375 15.625C14.375 12.5188 16.8906 10 20 10ZM20 35C15.8648 35 12.1172 33.318 9.39844 30.6023C10.6641 27.3359 13.7891 25 17.5 25H22.5C26.2141 25 29.3391 27.3344 30.6016 30.6023C27.8828 33.3203 24.1328 35 20 35Z" fill="#282828"/>
</svg>
