<svg width="40" height="40" viewBox="0 0 40 40" fill="none" xmlns="http://www.w3.org/2000/svg">
<g clip-path="url(#clip0_376_21)">
<path d="M20 0C8.95312 0 0 8.95312 0 20C0 31.0469 8.95312 40 20 40C31.0469 40 40 31.0469 40 20C40 8.95312 31.0469 0 20 0ZM20 10C23.107 10 25.625 12.5188 25.625 15.625C25.625 18.7313 23.1094 21.25 20 21.25C16.8937 21.25 14.375 18.7313 14.375 15.625C14.375 12.5188 16.8906 10 20 10ZM20 35C15.8648 35 12.1172 33.318 9.39844 30.6023C10.6641 27.3359 13.7891 25 17.5 25H22.5C26.2141 25 29.3391 27.3344 30.6016 30.6023C27.8828 33.3203 24.1328 35 20 35Z" fill="#282828"/>
<g clip-path="url(#clip1_376_21)">
<circle cx="31.5" cy="33.5" r="7.5" fill="white"/>
<path d="M31.5 27.1539C35.0048 27.1539 37.8461 29.9951 37.8461 33.5C37.8461 37.0049 35.0048 39.8462 31.5 39.8462C27.9951 39.8462 25.1538 37.0049 25.1538 33.5C25.1538 29.9951 27.9951 27.1539 31.5 27.1539ZM33.5432 31.5769L30.7067 34.4134L29.4567 33.1635C29.2708 32.9776 28.9695 32.9776 28.7836 33.1635C28.5977 33.3494 28.5977 33.6507 28.7836 33.8366L30.3702 35.4231C30.556 35.609 30.8574 35.609 31.0432 35.4231L34.2163 32.25C34.4022 32.0642 34.4022 31.7628 34.2163 31.5769C34.0304 31.3911 33.7291 31.3911 33.5432 31.5769Z" fill="#00AC30"/>
</g>
</g>
<defs>
<clipPath id="clip0_376_21">
<rect width="40" height="40" fill="white"/>
</clipPath>
<clipPath id="clip1_376_21">
<rect width="15" height="15" fill="white" transform="translate(24 26)"/>
</clipPath>
</defs>
</svg>
